<svg width="102" height="94" viewBox="0 0 102 94" fill="none" xmlns="http://www.w3.org/2000/svg">
<path d="M0 88.1338H0.914303L3.73364 92.9188V88.1338H4.40451V93.9233H3.59494L0.673697 88.9601V93.9233H0V88.1338Z" fill="white"/>
<path d="M5.46886 92.749C5.46886 91.77 6.50488 91.4389 7.59186 91.4389H8.19759V91.1304C8.19759 90.4598 7.94001 90.174 7.29179 90.174C6.70868 90.174 6.38317 90.4174 6.32089 90.9352H5.6472C5.73495 89.9731 6.49637 89.6166 7.32292 89.6166C8.14948 89.6166 8.87129 89.9476 8.87129 91.1304V93.9234H8.19759V93.3885C8.04563 93.5916 7.84546 93.7535 7.61515 93.8597C7.38483 93.966 7.13166 94.0131 6.87853 93.9969C6.0916 93.9969 5.4632 93.6149 5.4632 92.749H5.46886ZM8.19196 92.4406V91.9171H7.60882C6.75963 91.9171 6.13689 92.1265 6.13689 92.749C6.13689 93.1876 6.34635 93.4621 6.93796 93.4621C7.65129 93.4621 8.19196 93.0971 8.19196 92.4406Z" fill="white"/>
<path d="M10.3376 92.8537V90.2475H9.72897V89.6816H10.3376V88.7167H11.0084V89.6816H11.9963V90.2475H11.0084V92.7942C11.0084 93.2074 11.1953 93.4111 11.5349 93.4111C11.7115 93.414 11.8872 93.3843 12.053 93.3234V93.8893C11.8711 93.9524 11.6793 93.9821 11.4868 93.977C10.7197 93.977 10.3546 93.5243 10.3546 92.8452" fill="white"/>
<path d="M12.9616 88.3602C12.9616 88.2717 12.9878 88.1853 13.037 88.1118C13.0861 88.0383 13.156 87.981 13.2377 87.9471C13.3194 87.9133 13.4093 87.9044 13.4961 87.9217C13.5828 87.9389 13.6626 87.9815 13.7251 88.044C13.7877 88.1066 13.8302 88.1862 13.8475 88.273C13.8648 88.3597 13.8559 88.4496 13.822 88.5313C13.7882 88.613 13.7309 88.6828 13.6573 88.7319C13.5838 88.781 13.4973 88.8073 13.4088 88.8073C13.2905 88.8065 13.1771 88.7592 13.0934 88.6755C13.0097 88.5918 12.9624 88.4785 12.9616 88.3602ZM13.0833 89.6901H13.757V93.9346H13.0833V89.6901Z" fill="white"/>
<path d="M14.8185 91.8435V91.7785C14.8185 90.5079 15.6989 89.6166 16.8991 89.6166C18.0993 89.6166 18.9796 90.4994 18.9796 91.77V91.8351C18.9796 93.1141 18.0964 93.9969 16.8906 93.9969C15.6847 93.9969 14.8185 93.0829 14.8185 91.8435ZM18.2832 91.8435V91.7869C18.2832 90.805 17.7398 90.174 16.8991 90.174C16.0584 90.174 15.5149 90.805 15.5149 91.7785V91.8435C15.5149 92.8056 16.0414 93.4366 16.8991 93.4366C17.7568 93.4366 18.2832 92.7971 18.2832 91.8435Z" fill="white"/>
<path d="M20.0269 89.6901H20.6978V90.3607C20.8316 90.1211 21.0304 89.9241 21.2713 89.7925C21.5121 89.6608 21.7853 89.5998 22.0593 89.6165C22.934 89.6165 23.5483 90.0947 23.5483 91.3143V93.912H22.8774V91.2634C22.8774 90.5192 22.5604 90.1881 21.881 90.1881C21.7252 90.1781 21.569 90.2009 21.4226 90.2551C21.2762 90.3094 21.1428 90.3939 21.0312 90.503C20.9196 90.6122 20.8322 90.7436 20.7748 90.8888C20.7173 91.0339 20.6911 91.1895 20.6978 91.3455V93.912H20.0269V89.6901Z" fill="white"/>
<path d="M24.522 92.749C24.522 91.77 25.558 91.4389 26.6422 91.4389H27.2508V91.1304C27.2508 90.4598 26.9904 90.174 26.345 90.174C25.7619 90.174 25.4363 90.4174 25.3712 90.9352H24.7003C24.7881 89.9731 25.5496 89.6166 26.3761 89.6166C27.2027 89.6166 27.9216 89.9476 27.9216 91.1304V93.9234H27.2508V93.3885C27.0986 93.5914 26.8984 93.7532 26.6682 93.8594C26.4379 93.9656 26.1848 94.0129 25.9317 93.9969C25.1447 93.9969 24.5163 93.6149 24.5163 92.749H24.522ZM27.2451 92.4406V91.9171H26.662C25.8128 91.9171 25.1872 92.1265 25.1872 92.749C25.1872 93.1876 25.3995 93.4621 25.9911 93.4621C26.7016 93.4621 27.2451 93.0971 27.2451 92.4406Z" fill="white"/>
<path d="M29.9371 87.6641H29.2577V93.9233H29.9371V87.6641Z" fill="white"/>
<path d="M33.5122 88.1338H35.2531C36.3315 88.1338 37.1156 88.4903 37.1156 89.6335V89.6646C37.1341 89.9382 37.057 90.2096 36.8975 90.4326C36.7379 90.6555 36.5059 90.8162 36.241 90.8871C37.0902 91.0908 37.4015 91.5181 37.4015 92.2708V92.3047C37.4015 93.397 36.6542 93.9233 35.4965 93.9233H33.515L33.5122 88.1338ZM35.2531 90.6607C36.1023 90.6607 36.4278 90.3523 36.4278 89.642V89.6081C36.4278 88.9516 36.0485 88.6856 35.2389 88.6856H34.2001V90.6664L35.2531 90.6607ZM35.4795 93.3744C36.3287 93.3744 36.7109 93.0008 36.7109 92.2963V92.2651C36.7109 91.552 36.3145 91.2125 35.3833 91.2125H34.2001V93.3744H35.4795Z" fill="white"/>
<path d="M38.5027 89.6901H39.1764V90.4513C39.2995 90.1888 39.4972 89.9683 39.7449 89.8173C39.9926 89.6664 40.2792 89.5916 40.569 89.6024V90.2334C39.7199 90.273 39.1764 90.5419 39.1764 91.586V93.9092H38.5027V89.6901Z" fill="white"/>
<path d="M40.9087 91.8435V91.7785C40.9087 90.5079 41.7919 89.6166 42.9892 89.6166C44.1866 89.6166 45.0726 90.4994 45.0726 91.77V91.8351C45.0726 93.1141 44.1894 93.9969 42.9807 93.9969C41.772 93.9969 40.9087 93.0829 40.9087 91.8435ZM44.3763 91.8435V91.7869C44.3763 90.805 43.8328 90.174 42.9892 90.174C42.1457 90.174 41.605 90.805 41.605 91.7785V91.8435C41.605 92.8056 42.1315 93.4366 42.9892 93.4366C43.8469 93.4366 44.3763 92.7971 44.3763 91.8435Z" fill="white"/>
<path d="M45.769 92.749C45.769 91.77 46.805 91.4389 47.892 91.4389H48.4977V91.1304C48.4977 90.4598 48.2401 90.174 47.5919 90.174C47.0088 90.174 46.6833 90.4174 46.6182 90.9352H45.9473C46.035 89.9731 46.7965 89.6166 47.623 89.6166C48.4496 89.6166 49.1714 89.9476 49.1714 91.1304V93.9234H48.4977V93.3885C48.3458 93.5916 48.1456 93.7535 47.9152 93.8597C47.6849 93.966 47.4318 94.0131 47.1786 93.9969C46.3917 93.9969 45.7633 93.6149 45.7633 92.749H45.769ZM48.4921 92.4406V91.9171H47.9089C47.0597 91.9171 46.4342 92.1265 46.4342 92.749C46.4342 93.1876 46.6464 93.4621 47.2381 93.4621C47.9514 93.4621 48.4921 93.0971 48.4921 92.4406Z" fill="white"/>
<path d="M50.1763 91.8916V91.8265C50.1763 90.5305 50.9859 89.6166 52.1577 89.6166C52.4353 89.6033 52.7112 89.6665 52.9553 89.7992C53.1993 89.9319 53.4023 90.1291 53.5419 90.3692V87.6641H54.2156V93.9233H53.5419V93.1961C53.3814 93.4349 53.1656 93.6314 52.9128 93.7689C52.6599 93.9063 52.3776 93.9807 52.0898 93.9856C50.9802 93.9856 50.1791 93.1989 50.1791 91.8803L50.1763 91.8916ZM53.5759 91.8237V91.7586C53.5759 90.6749 53.0579 90.1627 52.2313 90.1627C51.4048 90.1627 50.8868 90.7541 50.8868 91.7841V91.8492C50.8868 92.916 51.4529 93.4253 52.1747 93.4253C52.9588 93.4253 53.5901 92.9075 53.5901 91.8237" fill="white"/>
<path d="M56.2424 93.2272V93.9233H55.5715V87.6641H56.2424V90.4032C56.3987 90.1651 56.6109 89.9689 56.8606 89.8317C57.1103 89.6946 57.3898 89.6207 57.6747 89.6165C58.7871 89.6165 59.6024 90.4258 59.6024 91.7473V91.8096C59.6024 93.1055 58.8438 93.9969 57.6747 93.9969C57.3892 94.0069 57.1061 93.9409 56.8545 93.8056C56.6028 93.6704 56.3916 93.4708 56.2424 93.2272ZM58.906 91.8435V91.7784C58.906 90.7088 58.3144 90.174 57.6039 90.174C56.817 90.174 56.2197 90.6947 56.2197 91.7784V91.8435C56.2197 92.9273 56.7859 93.4366 57.6124 93.4366C58.439 93.4366 58.906 92.8707 58.906 91.8435Z" fill="white"/>
<path d="M60.2987 92.749C60.2987 91.77 61.3348 91.4389 62.4189 91.4389H63.0275V91.1304C63.0275 90.4598 62.7671 90.174 62.1217 90.174C61.5385 90.174 61.213 90.4174 61.1479 90.9352H60.4771C60.5648 89.9731 61.3263 89.6166 62.1528 89.6166C62.9794 89.6166 63.7012 89.9476 63.7012 91.1304V93.9234H63.0275V93.3885C62.8748 93.5887 62.675 93.7479 62.4458 93.8521C62.2167 93.9563 61.9653 94.0021 61.7141 93.9856C60.9271 93.9856 60.2987 93.6036 60.2987 92.7377V92.749ZM63.0275 92.4293V91.9058H62.4444C61.5952 91.9058 60.9696 92.1152 60.9696 92.7377C60.9696 93.1763 61.1819 93.4508 61.7735 93.4508C62.484 93.4508 63.0275 93.0858 63.0275 92.4293Z" fill="white"/>
<path d="M65.0231 89.6901H65.6968V90.3608C65.8296 90.1209 66.0278 89.9237 66.2683 89.7919C66.5089 89.6602 66.7818 89.5994 67.0555 89.6166C67.9302 89.6166 68.5473 90.0948 68.5473 91.3144V93.912H67.8736V91.2634C67.8736 90.5192 67.5594 90.1882 66.8772 90.1882C66.7216 90.1785 66.5657 90.2016 66.4196 90.2561C66.2735 90.3105 66.1406 90.395 66.0293 90.5041C65.918 90.6133 65.8309 90.7446 65.7736 90.8895C65.7163 91.0344 65.6901 91.1898 65.6968 91.3455V93.912H65.0231V89.6901Z" fill="white"/>
<path d="M69.5521 91.8916V91.8265C69.5521 90.5305 70.3617 89.6165 71.5336 89.6165C71.8112 89.6033 72.0871 89.6665 72.3311 89.7992C72.5752 89.9319 72.7781 90.1291 72.9178 90.3692V87.6641H73.5915V93.9233H72.9178V93.1961C72.7588 93.4366 72.544 93.6351 72.2916 93.7745C72.0392 93.914 71.7568 93.9903 71.4685 93.9969C70.3589 93.9969 69.5578 93.2102 69.5578 91.8916H69.5521ZM72.9546 91.835V91.7699C72.9546 90.6862 72.4366 90.174 71.61 90.174C70.7835 90.174 70.2655 90.7654 70.2655 91.7954V91.8605C70.2655 92.9273 70.8316 93.4366 71.5534 93.4366C72.3375 93.4366 72.9688 92.9188 72.9688 91.835" fill="white"/>
<path d="M77.8856 88.1338H77.1808V93.9233H77.8856V88.1338Z" fill="white"/>
<path d="M79.3378 89.6901H80.0086V90.4513C80.1326 90.1888 80.3309 89.9684 80.5789 89.8175C80.827 89.6666 81.114 89.5918 81.4042 89.6024V90.2334C80.555 90.2731 80.0086 90.5419 80.0086 91.586V93.9092H79.3378V89.6901Z" fill="white"/>
<path d="M82.0665 91.852V91.7869C82.0665 90.5079 82.8846 89.6166 84.048 89.6166C85.0274 89.6166 85.9502 90.208 85.9502 91.7219V91.9397H82.76C82.794 92.9047 83.2554 93.4366 84.1216 93.4366C84.7783 93.4366 85.1576 93.1961 85.2538 92.7009H85.9247C85.7775 93.5498 85.0755 93.9969 84.1187 93.9969C82.9185 93.9969 82.0693 93.148 82.0693 91.852H82.0665ZM85.268 91.3964C85.2029 90.5221 84.75 90.174 84.0536 90.174C83.3573 90.174 82.9044 90.6437 82.7911 91.3964H85.268Z" fill="white"/>
<path d="M87.6769 87.6641H86.9975V93.9233H87.6769V87.6641Z" fill="white"/>
<path d="M88.7101 92.749C88.7101 91.77 89.7461 91.4389 90.8302 91.4389H91.436V91.1304C91.436 90.4598 91.1756 90.174 90.5274 90.174C89.9442 90.174 89.6215 90.4174 89.5564 90.9352H88.8884C88.9761 89.9731 89.7376 89.6166 90.5642 89.6166C91.3907 89.6166 92.1097 89.9476 92.1097 91.1304V93.9234H91.436V93.3885C91.284 93.5916 91.0838 93.7535 90.8535 93.8597C90.6232 93.966 90.37 94.0131 90.1169 93.9969C89.33 93.9969 88.7016 93.6149 88.7016 92.749H88.7101ZM91.4303 92.4406V91.9171H90.8699C90.0207 91.9171 89.3951 92.1265 89.3951 92.749C89.3951 93.1876 89.6074 93.4621 90.199 93.4621C90.9095 93.4621 91.453 93.0971 91.453 92.4406" fill="white"/>
<path d="M93.4316 89.6901H94.1053V90.3608C94.2382 90.1209 94.4363 89.9237 94.6768 89.7919C94.9174 89.6602 95.1903 89.5994 95.464 89.6166C96.3387 89.6166 96.9558 90.0948 96.9558 91.3144V93.912H96.2821V91.2634C96.2821 90.5192 95.9679 90.1882 95.2857 90.1882C95.1301 90.1785 94.9742 90.2016 94.8282 90.2561C94.6821 90.3105 94.5491 90.395 94.4378 90.5041C94.3265 90.6133 94.2394 90.7446 94.1821 90.8895C94.1248 91.0344 94.0987 91.1898 94.1053 91.3455V93.912H93.4316V89.6901Z" fill="white"/>
<path d="M97.9607 91.8916V91.8265C97.9607 90.5305 98.7702 89.6165 99.9421 89.6165C100.22 89.6033 100.496 89.6665 100.74 89.7992C100.984 89.9319 101.187 90.1291 101.326 90.3692V87.6641H102V93.9233H101.326V93.1961C101.167 93.4366 100.953 93.6351 100.7 93.7745C100.448 93.914 100.165 93.9903 99.877 93.9969C98.7674 93.9969 97.9663 93.2102 97.9663 91.8916H97.9607ZM101.363 91.835V91.7699C101.363 90.6862 100.845 90.174 100.019 90.174C99.192 90.174 98.674 90.7654 98.674 91.7954V91.8605C98.674 92.9273 99.2401 93.4366 99.9619 93.4366C100.746 93.4366 101.377 92.9188 101.377 91.835" fill="white"/>
<path d="M65.2213 40.7678C65.0518 40.791 64.8794 40.7797 64.7145 40.7345C64.5496 40.6892 64.3955 40.611 64.2617 40.5046L59.6958 36.8826C59.5527 36.7841 59.4314 36.6571 59.3395 36.5097C59.2475 36.3624 59.1868 36.1976 59.1612 36.0258C59.1356 35.854 59.1456 35.6788 59.1905 35.511C59.2355 35.3432 59.3144 35.1864 59.4225 35.0504C59.5306 34.9144 59.6655 34.802 59.8188 34.7203C59.9721 34.6385 60.1406 34.5892 60.3138 34.5752C60.487 34.5613 60.6612 34.5831 60.8256 34.6393C60.9901 34.6955 61.1412 34.7849 61.2697 34.9019L65.8468 38.5238C66.0454 38.6783 66.1936 38.8882 66.2727 39.1269C66.3519 39.3656 66.3583 39.6224 66.2914 39.8649C66.2244 40.1073 66.0869 40.3244 65.8964 40.4886C65.7059 40.6529 65.471 40.7569 65.2213 40.7876" fill="white"/>
<path d="M55.2658 19.0811C55.0226 19.081 54.7822 19.0286 54.561 18.9275C54.3398 18.8265 54.1428 18.6791 53.9835 18.4954L45.0132 8.12743C44.8368 7.96581 44.6966 7.76875 44.6017 7.54918C44.5068 7.3296 44.4594 7.09246 44.4626 6.85329C44.4657 6.61413 44.5194 6.37834 44.6201 6.16137C44.7208 5.94439 44.8662 5.75112 45.0468 5.59424C45.2274 5.43736 45.4392 5.32041 45.6682 5.25103C45.8972 5.18165 46.1382 5.16142 46.3756 5.19167C46.6129 5.22192 46.8412 5.30195 47.0454 5.42654C47.2497 5.55112 47.4253 5.71745 47.5608 5.91462L56.5283 16.2826C56.7377 16.5284 56.8727 16.8287 56.9174 17.1485C56.962 17.4682 56.9146 17.7941 56.7806 18.0878C56.6466 18.3816 56.4316 18.631 56.1608 18.807C55.89 18.9829 55.5746 19.078 55.2517 19.0811" fill="white"/>
<path d="M72.1026 24.2679C71.7314 24.2693 71.3692 24.1545 71.0666 23.9397C70.6773 23.6646 70.4133 23.2462 70.3326 22.7766C70.252 22.307 70.3612 21.8245 70.6363 21.4354L81.2796 6.36736C81.4158 6.1745 81.5887 6.01035 81.7884 5.88429C81.9881 5.75823 82.2107 5.67272 82.4435 5.63265C82.6762 5.59258 82.9146 5.59873 83.1449 5.65075C83.3753 5.70277 83.5932 5.79965 83.7861 5.93584C83.979 6.07203 84.1433 6.24488 84.2694 6.44451C84.3955 6.64414 84.481 6.86663 84.5211 7.0993C84.5612 7.33198 84.555 7.57026 84.503 7.80056C84.4509 8.03085 84.354 8.24866 84.2178 8.44152L73.5717 23.5096C73.4056 23.7445 73.1854 23.936 72.9297 24.0679C72.674 24.1999 72.3903 24.2685 72.1026 24.2679Z" fill="white"/>
<path d="M75.2276 32.1995C74.7534 32.1959 74.2976 32.0157 73.9493 31.694C73.6009 31.3723 73.3852 30.9323 73.3441 30.46C73.3031 29.9878 73.4397 29.5172 73.7273 29.1402C74.0149 28.7633 74.4328 28.5072 74.8993 28.4219L97.5445 24.4009C97.7906 24.3573 98.0429 24.3625 98.287 24.4163C98.531 24.4701 98.7621 24.5714 98.967 24.7145C99.1719 24.8575 99.3466 25.0396 99.4811 25.2501C99.6157 25.4607 99.7074 25.6957 99.7511 25.9417C99.7947 26.1877 99.7895 26.4399 99.7357 26.6838C99.6819 26.9278 99.5805 27.1588 99.4374 27.3636C99.2943 27.5685 99.1122 27.7431 98.9016 27.8776C98.6909 28.0121 98.4559 28.1038 98.2098 28.1474L75.5645 32.1684C75.4533 32.1884 75.3406 32.1989 75.2276 32.1995Z" fill="white"/>
<path d="M99.9846 50.5499C99.768 50.5501 99.5528 50.5147 99.3477 50.4453L72.496 41.478C72.2457 41.3944 72.0142 41.2623 71.815 41.0893C71.6157 40.9163 71.4524 40.7057 71.3346 40.4696C71.0965 39.9928 71.0576 39.441 71.2265 38.9355C71.3954 38.4301 71.7583 38.0124 72.2352 37.7744C72.7122 37.5364 73.2642 37.4975 73.7698 37.6664L100.621 46.6365C101.073 46.7883 101.456 47.0955 101.702 47.5034C101.948 47.9113 102.041 48.3933 101.965 48.8635C101.888 49.3336 101.647 49.7613 101.284 50.0702C100.922 50.3791 100.461 50.5491 99.9846 50.5499Z" fill="white"/>
<path d="M64.3777 19.0641C63.9444 19.0641 63.5257 18.9074 63.199 18.6229C62.8722 18.3384 62.6595 17.9454 62.6001 17.5163L60.4233 1.95305C60.3832 1.49447 60.5208 1.03802 60.8076 0.677851C61.0943 0.317685 61.5085 0.0812711 61.9645 0.0173906C62.4205 -0.0464899 62.8837 0.0670386 63.2585 0.334538C63.6332 0.602037 63.891 1.00311 63.9786 1.45503L66.1554 17.0183C66.1885 17.2521 66.1751 17.4901 66.1161 17.7187C66.057 17.9474 65.9533 18.1621 65.8111 18.3506C65.6688 18.539 65.4907 18.6976 65.287 18.8171C65.0833 18.9367 64.858 19.0148 64.624 19.0471C64.5414 19.0584 64.4582 19.0641 64.3749 19.0641" fill="white"/>
<path d="M38.2903 25.8299C37.8902 25.8294 37.5051 25.6776 37.2122 25.405C36.9194 25.1324 36.7405 24.7592 36.7115 24.3602C36.6824 23.9613 36.8054 23.5661 37.0558 23.254C37.3061 22.942 37.6652 22.7361 38.061 22.6777L50.1706 20.8921C50.3777 20.8592 50.5893 20.8677 50.7931 20.9172C50.9969 20.9666 51.1889 21.0559 51.3579 21.18C51.5269 21.3042 51.6696 21.4605 51.7777 21.6402C51.8858 21.8198 51.9572 22.0191 51.9877 22.2265C52.0182 22.4339 52.0073 22.6453 51.9555 22.8484C51.9037 23.0516 51.8121 23.2424 51.686 23.4099C51.5599 23.5774 51.4018 23.7183 51.2209 23.8242C51.04 23.9302 50.8398 23.9993 50.632 24.0274L38.5253 25.813C38.4475 25.8242 38.369 25.8299 38.2903 25.8299Z" fill="white"/>
<path d="M55.7215 44.8623C55.3778 44.8756 55.0416 44.7593 54.7795 44.5366C54.5174 44.3139 54.3485 44.001 54.3062 43.6597L53.2221 35.0348C53.19 34.6796 53.2973 34.3259 53.5212 34.0482C53.7452 33.7705 54.0682 33.5907 54.4223 33.5467C54.7763 33.5026 55.1337 33.5978 55.4188 33.8121C55.704 34.0264 55.8948 34.343 55.9508 34.6953L57.018 43.3201C57.0406 43.4995 57.0274 43.6815 56.9794 43.8558C56.9314 44.0301 56.8494 44.1932 56.7381 44.3357C56.6269 44.4782 56.4885 44.5974 56.3311 44.6863C56.1736 44.7752 56.0002 44.8321 55.8206 44.8538H55.7187" fill="white"/>
<path d="M85.6218 73.742C85.2785 73.7426 84.9402 73.6594 84.6363 73.4997C84.3324 73.3399 84.0722 73.1084 83.8781 72.8252L67.2593 48.6343C67.0952 48.4058 66.9783 48.1469 66.9155 47.8727C66.8528 47.5985 66.8454 47.3146 66.8938 47.0375C66.9422 46.7604 67.0455 46.4958 67.1975 46.2591C67.3495 46.0224 67.5472 45.8185 67.7791 45.6591C68.011 45.4998 68.2724 45.3884 68.5479 45.3313C68.8234 45.2743 69.1076 45.2728 69.3837 45.3269C69.6598 45.3811 69.9223 45.4897 70.1559 45.6466C70.3894 45.8034 70.5893 46.0053 70.7439 46.2404L87.3627 70.4313C87.5797 70.7488 87.7061 71.1194 87.7283 71.5033C87.7505 71.8872 87.6677 72.2699 87.4887 72.6102C87.3097 72.9506 87.0413 73.2358 86.7124 73.4352C86.3835 73.6346 86.0065 73.7407 85.6218 73.742Z" fill="white"/>
<path d="M59.4948 81.9651C58.9063 81.9651 58.3418 81.7314 57.9256 81.3153C57.5094 80.8993 57.2756 80.335 57.2756 79.7466V50.6518C57.2961 50.0768 57.5391 49.5322 57.9533 49.1326C58.3675 48.7331 58.9207 48.5098 59.4963 48.5098C60.0719 48.5098 60.625 48.7331 61.0392 49.1326C61.4534 49.5322 61.6964 50.0768 61.7169 50.6518V79.7466C61.7161 80.3353 61.4817 80.8995 61.0651 81.3155C60.6484 81.7314 60.0837 81.9651 59.4948 81.9651Z" fill="white"/>
<path d="M47.1107 64.3645C48.4271 63.0681 49.3278 61.4093 49.6981 59.5995C50.0684 57.7896 49.8915 55.9105 49.19 54.2015C48.4885 52.4925 47.2941 51.0308 45.7588 50.0026C44.2236 48.9744 42.417 48.4262 40.569 48.4277H31.6043C31.0158 48.4277 30.4513 48.6615 30.0351 49.0775C29.6189 49.4936 29.3851 50.0578 29.3851 50.6462V79.7466C29.3851 80.335 29.6189 80.8993 30.0351 81.3153C30.4513 81.7314 31.0158 81.9651 31.6043 81.9651H42.1004C44.171 81.9669 46.1857 81.2934 47.8387 80.0468C49.4916 78.8001 50.6926 77.0485 51.2593 75.0576C51.8261 73.0667 51.7276 70.9454 50.9789 69.0156C50.2301 67.0857 48.872 65.4527 47.1107 64.3645ZM34.0897 52.5562H40.4133C41.7902 52.5562 43.1107 53.103 44.0843 54.0763C45.0578 55.0495 45.6048 56.3695 45.6048 57.7459C45.6048 59.1222 45.0578 60.4422 44.0843 61.4155C43.1107 62.3887 41.7902 62.9355 40.4133 62.9355H34.0868C33.975 62.9355 33.8677 62.8911 33.7886 62.812C33.7095 62.733 33.6651 62.6257 33.6651 62.5139V52.975C33.6658 52.8637 33.7106 52.7572 33.7896 52.6787C33.8686 52.6003 33.9755 52.5562 34.0868 52.5562H34.0897ZM41.9419 77.8564H34.0868C33.975 77.8564 33.8677 77.812 33.7886 77.7329C33.7095 77.6539 33.6651 77.5466 33.6651 77.4348V67.4743C33.6658 67.363 33.7106 67.2565 33.7896 67.178C33.8686 67.0996 33.9755 67.0555 34.0868 67.0555H41.9419C43.3518 67.0878 44.693 67.6704 45.6787 68.6786C46.6645 69.6868 47.2164 71.0406 47.2164 72.4503C47.2164 73.8601 46.6645 75.2139 45.6787 76.2221C44.693 77.2303 43.3518 77.8128 41.9419 77.8451" fill="white"/>
<path d="M22.2094 48.4277C21.6208 48.4277 21.0563 48.6614 20.6401 49.0775C20.2239 49.4935 19.9901 50.0578 19.9901 50.6462V72.5904C19.9901 72.5904 4.36773 49.8426 4.05069 49.387C3.78177 48.9976 3.39547 48.7042 2.94811 48.5496C2.50074 48.395 2.01569 48.3872 1.5636 48.5274C1.11152 48.6677 0.716007 48.9485 0.434758 49.3291C0.153509 49.7097 0.00119904 50.1702 0 50.6434V79.7466C0.0205408 80.3216 0.263498 80.8663 0.677707 81.2658C1.09192 81.6654 1.64505 81.8886 2.22064 81.8886C2.79624 81.8886 3.34941 81.6654 3.76362 81.2658C4.17783 80.8663 4.42078 80.3216 4.44132 79.7466V57.8053L20.3779 81.0086C20.6468 81.398 21.0331 81.6914 21.4805 81.846C21.9279 82.0006 22.4129 82.0084 22.865 81.8682C23.3171 81.728 23.7126 81.4471 23.9938 81.0665C24.2751 80.6859 24.4274 80.2255 24.4286 79.7523V50.6518C24.4286 50.0635 24.1948 49.4992 23.7786 49.0831C23.3624 48.6671 22.7979 48.4334 22.2094 48.4334" fill="white"/>
<path d="M44.0422 40.1934C43.7649 40.194 43.493 40.1165 43.2576 39.9699C43.0222 39.8233 42.8328 39.6134 42.7111 39.3642C42.5895 39.1151 42.5404 38.8367 42.5696 38.561C42.5987 38.2853 42.7049 38.0233 42.876 37.8051L49.8763 28.8152C49.9928 28.6543 50.1405 28.5184 50.3107 28.4157C50.4809 28.3131 50.67 28.2458 50.8667 28.2177C51.0635 28.1897 51.2639 28.2016 51.456 28.2526C51.6481 28.3037 51.8279 28.3929 51.9847 28.5149C52.1416 28.6369 52.2723 28.7893 52.369 28.9629C52.4657 29.1364 52.5264 29.3277 52.5476 29.5253C52.5687 29.7228 52.5499 29.9226 52.4922 30.1127C52.4344 30.3029 52.339 30.4794 52.2115 30.6319L45.2113 39.6246C45.0724 39.8017 44.8949 39.9448 44.6923 40.0429C44.4897 40.1409 44.2673 40.1915 44.0422 40.1905" fill="white"/>
<path d="M63.3021 32.6805C63.0305 32.727 62.7513 32.6756 62.5141 32.5356C62.2769 32.3955 62.0972 32.1759 62.0068 31.9157C61.9164 31.6556 61.9214 31.3718 62.0207 31.115C62.12 30.8581 62.3072 30.6448 62.5491 30.513L65.0627 29.1491C65.3327 29.0139 65.6446 28.989 65.9326 29.0794C66.2206 29.1699 66.4622 29.3688 66.6062 29.634C66.7503 29.8993 66.7855 30.2101 66.7046 30.5008C66.6236 30.7916 66.4328 31.0395 66.1724 31.1922L63.6587 32.556C63.547 32.6158 63.4267 32.6579 63.3021 32.6805Z" fill="white"/>
<path d="M62.1528 27.3975C62.1534 27.649 62.0792 27.8951 61.9398 28.1045C61.8004 28.3138 61.6019 28.4771 61.3695 28.5736C61.1372 28.6701 60.8814 28.6955 60.6346 28.6466C60.3878 28.5977 60.1611 28.4766 59.9831 28.2987C59.8052 28.1209 59.6841 27.8942 59.6352 27.6475C59.5862 27.4008 59.6116 27.1451 59.7082 26.9128C59.8047 26.6805 59.9681 26.4822 60.1775 26.3428C60.387 26.2034 60.633 26.1293 60.8847 26.1298C61.221 26.1298 61.5435 26.2634 61.7814 26.5011C62.0192 26.7389 62.1528 27.0613 62.1528 27.3975Z" fill="white"/>
</svg>
