<?xml version="1.0" encoding="UTF-8"?>
<svg enable-background="new 0 0 850 768" version="1.1" viewBox="0 0 850 768" xml:space="preserve" xmlns="http://www.w3.org/2000/svg">
<style type="text/css">
	.st0{fill:#006770;}
	.st1{fill:#ABC70C;}
	.st2{fill:#51B05C;}
	.st3{fill:#00A584;}
	.st4{fill:#009383;}
	.st5{fill:#00837F;}
	.st6{fill:#1DAA72;}
	.st7{fill:#70B644;}
	.st8{fill:#9AC11B;}
	.st9{fill:#007379;}
	.st10{fill:#88BC24;}
	.st11{fill:#BBCC00;}
	.st12{fill:#CAD100;}
</style>
<path class="st0" d="M40.7,698h7l21.6,36.7V698h5.2v44.4h-6.2l-22.4-38.1v38.1h-5.2V698z"/>
<path class="st0" d="m82.6 733.4c0-7.5 8-10.1 16.3-10.1h4.7v-2.3c0-5.2-2-7.3-7-7.3-4.5 0-7 1.9-7.5 5.8h-5.1c0.7-7.4 6.6-10.1 12.9-10.1 6.2 0 11.9 2.5 11.9 11.6v21.4h-5.2v-4.1c-2.4 3-5.3 4.7-10.1 4.7-6.1 0-10.9-2.9-10.9-9.6zm21-2.3v-4h-4.5c-6.5 0-11.3 1.6-11.3 6.4 0 3.4 1.6 5.5 6.2 5.5 5.4-0.1 9.6-2.9 9.6-7.9z"/>
<path class="st0" d="m120 734.3v-20h-4.7v-4.4h4.7v-7.4h5.2v7.4h7.6v4.4h-7.6v19.5c0 3.2 1.4 4.7 4 4.7 1.6 0 2.9-0.3 4-0.7v4.4c-1.1 0.4-2.3 0.7-4.4 0.7-5.9 0-8.8-3.5-8.8-8.6z"/>
<path class="st0" d="m140.2 699.7c0-1.9 1.6-3.4 3.4-3.4 1.9 0 3.4 1.6 3.4 3.4 0 1.9-1.6 3.4-3.4 3.4-1.9 0.1-3.4-1.5-3.4-3.4zm0.9 10.2h5.2v32.5h-5.2v-32.5z"/>
<path class="st0" d="m154.4 726.5v-0.5c0-9.8 6.8-16.6 16-16.6s16 6.8 16 16.5v0.5c0 9.8-6.8 16.6-16 16.6-9.4 0-16-7-16-16.5zm26.6 0v-0.5c0-7.5-4.2-12.4-10.6-12.4-6.5 0-10.6 4.8-10.6 12.3v0.5c0 7.4 4 12.2 10.6 12.2 6.5 0.1 10.6-4.8 10.6-12.1z"/>
<path class="st0" d="m194.4 709.9h5.2v5.2c1.5-3 5.1-5.7 10.4-5.7 6.7 0 11.4 3.7 11.4 13.1v20h-5.2v-20.3c0-5.7-2.4-8.3-7.6-8.3-4.8 0-9.1 3-9.1 8.9v19.7h-5.2v-32.6z"/>
<path class="st0" d="m228.9 733.4c0-7.5 8-10.1 16.3-10.1h4.7v-2.3c0-5.2-2-7.3-7-7.3-4.5 0-7 1.9-7.5 5.8h-5.2c0.7-7.4 6.6-10.1 12.9-10.1 6.2 0 11.9 2.5 11.9 11.6v21.4h-5.2v-4.1c-2.4 3-5.3 4.7-10.1 4.7-6 0-10.8-2.9-10.8-9.6zm20.9-2.3v-4h-4.5c-6.5 0-11.3 1.6-11.3 6.4 0 3.4 1.6 5.5 6.2 5.5 5.5-0.1 9.6-2.9 9.6-7.9z"/>
<path class="st0" d="m265.3 694.4h5.2v48.1h-5.2v-48.1z"/>
<path class="st0" d="m297.9 698h13.4c8.3 0 14.3 2.7 14.3 11.5v0.2c0 4-1.6 7.6-6.7 9.4 6.5 1.6 8.9 4.8 8.9 10.6v0.3c0 8.4-5.7 12.4-14.6 12.4h-15.2v-44.4zm13.4 19.4c6.5 0 9-2.4 9-7.8v-0.2c0-5-2.9-7.1-9.1-7.1h-8v15.2h8.1zm1.7 20.8c6.5 0 9.4-2.9 9.4-8.3v-0.2c0-5.5-3-8.1-10.2-8.1h-9.1v16.6h9.9z"/>
<path class="st0" d="m336.2 709.9h5.2v5.8c2.1-3.7 4.8-6.2 10.7-6.4v4.8c-6.5 0.3-10.7 2.4-10.7 10.4v17.8h-5.2v-32.4z"/>
<path class="st0" d="m354.7 726.5v-0.5c0-9.8 6.8-16.6 16-16.6s16 6.8 16 16.5v0.5c0 9.8-6.8 16.6-16 16.6s-16-7-16-16.5zm26.6 0v-0.5c0-7.5-4.2-12.4-10.6-12.4-6.5 0-10.6 4.8-10.6 12.3v0.5c0 7.4 4 12.2 10.6 12.2 6.5 0.1 10.6-4.8 10.6-12.1z"/>
<path class="st0" d="m392 733.4c0-7.5 8-10.1 16.3-10.1h4.7v-2.3c0-5.2-2-7.3-7-7.3-4.5 0-7 1.9-7.5 5.8h-5.2c0.7-7.4 6.6-10.1 12.9-10.1 6.2 0 11.9 2.5 11.9 11.6v21.4h-5.2v-4.1c-2.4 3-5.3 4.7-10.1 4.7-6 0-10.8-2.9-10.8-9.6zm20.9-2.3v-4h-4.5c-6.5 0-11.3 1.6-11.3 6.4 0 3.4 1.6 5.5 6.2 5.5 5.4-0.1 9.6-2.9 9.6-7.9z"/>
<path class="st0" d="m425.8 726.8v-0.5c0-9.9 6.2-17 15.2-17 5.4 0 8.8 2.6 10.6 5.8v-20.8h5.2v48.1h-5.2v-5.6c-1.9 3.2-6.4 6.2-11.1 6.2-8.6 0-14.7-6-14.7-16.2zm26-0.4v-0.5c0-8.3-4-12.2-10.3-12.2-6.5 0-10.3 4.5-10.3 12.4v0.5c0 8.2 4.4 12.1 9.9 12.1 5.9 0 10.7-4 10.7-12.3z"/>
<path class="st0" d="m472.4 737.1v5.3h-5.2v-48.1h5.2v21c1.9-3.2 6.3-6 11-6 8.5 0 14.8 6.2 14.8 16.3v0.5c0 9.9-5.8 16.8-14.8 16.8-5.3 0.1-9.2-2.6-11-5.8zm20.4-10.6v-0.5c0-8.2-4.5-12.3-10-12.3-6 0-10.6 4-10.6 12.3v0.5c0 8.3 4.4 12.2 10.7 12.2 6.4 0 9.9-4.3 9.9-12.2z"/>
<path class="st0" d="m503.5 733.4c0-7.5 8-10.1 16.3-10.1h4.7v-2.3c0-5.2-2-7.3-7-7.3-4.5 0-7 1.9-7.5 5.8h-5.2c0.7-7.4 6.6-10.1 12.9-10.1 6.2 0 11.9 2.5 11.9 11.6v21.4h-5.2v-4.1c-2.4 3-5.3 4.7-10.1 4.7-6 0-10.8-2.9-10.8-9.6zm21-2.3v-4h-4.5c-6.5 0-11.3 1.6-11.3 6.4 0 3.4 1.6 5.5 6.2 5.5 5.4-0.1 9.6-2.9 9.6-7.9z"/>
<path class="st0" d="m539.8 709.9h5.2v5.2c1.5-3 5.1-5.7 10.4-5.7 6.7 0 11.4 3.7 11.4 13.1v20h-5.2v-20.3c0-5.7-2.4-8.3-7.6-8.3-4.8 0-9.1 3-9.1 8.9v19.7h-5.2v-32.6z"/>
<path class="st0" d="m574.5 726.8v-0.5c0-9.9 6.2-17 15.2-17 5.4 0 8.8 2.6 10.6 5.8v-20.8h5.2v48.1h-5.2v-5.6c-1.9 3.2-6.4 6.2-11.1 6.2-8.5 0-14.7-6-14.7-16.2zm26-0.4v-0.5c0-8.3-4-12.2-10.3-12.2-6.5 0-10.3 4.5-10.3 12.4v0.5c0 8.2 4.4 12.1 9.9 12.1 6 0 10.7-4 10.7-12.3z"/>
<path class="st0" d="M633.1,698h5.4v44.4h-5.4V698z"/>
<path class="st0" d="m649.6 709.9h5.2v5.8c2-3.7 4.8-6.2 10.7-6.4v4.8c-6.5 0.3-10.7 2.4-10.7 10.4v17.8h-5.2v-32.4z"/>
<path class="st0" d="m670.6 726.5v-0.5c0-9.8 6.3-16.7 15.2-16.7 7.5 0 14.6 4.5 14.6 16.2v1.7h-24.5c0.3 7.4 3.8 11.5 10.4 11.5 5 0 8-1.9 8.6-5.7h5.2c-1.1 6.5-6.5 9.9-13.9 9.9-9.1 0.1-15.6-6.4-15.6-16.4zm24.5-3.5c-0.5-6.7-4-9.4-9.3-9.4s-8.8 3.6-9.7 9.4h19z"/>
<path class="st0" d="m708.4 694.4h5.2v48.1h-5.2v-48.1z"/>
<path class="st0" d="m721.5 733.4c0-7.5 8-10.1 16.3-10.1h4.7v-2.3c0-5.2-2-7.3-7-7.3-4.5 0-7 1.9-7.5 5.8h-5.2c0.7-7.4 6.6-10.1 12.9-10.1 6.2 0 11.9 2.5 11.9 11.6v21.4h-5.2v-4.1c-2.4 3-5.3 4.7-10.1 4.7-6 0-10.8-2.9-10.8-9.6zm21-2.3v-4h-4.5c-6.5 0-11.3 1.6-11.3 6.4 0 3.4 1.6 5.5 6.2 5.5 5.4-0.1 9.6-2.9 9.6-7.9z"/>
<path class="st0" d="m757.8 709.9h5.2v5.2c1.5-3 5.1-5.7 10.4-5.7 6.7 0 11.4 3.7 11.4 13.1v20h-5.2v-20.3c0-5.7-2.4-8.3-7.6-8.3-4.8 0-9.1 3-9.1 8.9v19.7h-5.2v-32.6z"/>
<path class="st0" d="m792.5 726.8v-0.5c0-9.9 6.2-17 15.2-17 5.4 0 8.8 2.6 10.6 5.8v-20.8h5.2v48.1h-5.2v-5.6c-1.9 3.2-6.4 6.2-11.1 6.2-8.5 0-14.7-6-14.7-16.2zm26-0.4v-0.5c0-8.3-4-12.2-10.3-12.2-6.5 0-10.3 4.5-10.3 12.4v0.5c0 8.2 4.4 12.1 9.9 12.1 6 0 10.7-4 10.7-12.3z"/>
<path class="st1" d="m538.6 336.1c-2.5 0.3-5.1-0.3-7.3-2l-34.9-27.6c-4.2-3.3-4.9-9.4-1.6-13.6s9.4-4.9 13.6-1.6l34.9 27.6c4.2 3.3 4.9 9.4 1.6 13.6-1.6 2.1-3.9 3.3-6.3 3.6z"/>
<path class="st2" d="m462.6 170.5c-3.6 0-7.2-1.5-9.8-4.5l-68.5-79.2c-4.7-5.4-4.1-13.5 1.3-18.2s13.5-4.1 18.2 1.3l68.5 79.2c4.7 5.4 4.1 13.5-1.3 18.2-2.4 2.2-5.4 3.2-8.4 3.2z"/>
<path class="st3" d="m591.1 210.1c-2.7 0-5.5-0.8-7.9-2.5-6.2-4.4-7.7-12.9-3.3-19.1l81.3-115.1c4.4-6.2 12.9-7.7 19.1-3.3s7.7 12.9 3.3 19.1l-81.3 115.1c-2.7 3.8-6.9 5.8-11.2 5.8z"/>
<path class="st4" d="m615 270.7c-6.9 0-13-4.9-14.3-12-1.4-7.9 3.9-15.4 11.8-16.8l173-30.7c7.9-1.4 15.4 3.9 16.8 11.8s-3.9 15.4-11.8 16.8l-173 30.7c-0.8 0.1-1.7 0.2-2.5 0.2z"/>
<path class="st5" d="m803.9 410.8c-1.6 0-3.2-0.3-4.9-0.8l-205-68.5c-8-2.7-12.4-11.4-9.7-19.4s11.4-12.4 19.4-9.7l205 68.5c8 2.7 12.4 11.4 9.7 19.4-2.1 6.5-8 10.5-14.5 10.5z"/>
<path class="st6" d="m532.1 170.4c-6.7 0-12.6-5-13.6-11.8l-16.6-119c-1-7.5 4.2-14.4 11.7-15.5s14.4 4.2 15.5 11.7l16.6 118.9c1 7.5-4.2 14.4-11.7 15.5-0.6 0.1-1.2 0.2-1.9 0.2z"/>
<path class="st7" d="m333 222c-5.9 0-11.1-4.3-12-10.3-1-6.6 3.6-12.8 10.2-13.7l92.4-13.6c6.6-1 12.8 3.6 13.7 10.2s-3.6 12.8-10.2 13.7l-92.4 13.6c-0.5 0.1-1.1 0.1-1.7 0.1z"/>
<path class="st8" d="m466.1 367.4c-5.4 0.3-10.2-3.7-10.9-9.2l-8.1-65.9c-0.7-5.8 3.4-11 9.1-11.7s11 3.4 11.7 9.1l8.1 65.9c0.7 5.8-3.4 11-9.1 11.7-0.3 0-0.6 0.1-0.8 0.1z"/>
<path class="st9" d="m694.3 587.9c-5.1 0-10.2-2.4-13.3-7l-126.9-184.7c-5-7.3-3.2-17.4 4.2-22.4 7.3-5 17.4-3.2 22.4 4.2l126.9 184.7c5 7.3 3.2 17.4-4.2 22.4-2.8 1.9-5.9 2.8-9.1 2.8z"/>
<path class="st0" d="m494.9 650.7c-9.4 0-16.9-7.6-16.9-16.9v-222.2c0-9.4 7.6-16.9 16.9-16.9 9.4 0 16.9 7.6 16.9 16.9v222.2c0 9.3-7.6 16.9-16.9 16.9z"/>
<path class="st0" d="m400.3 516.3c13.1-12.9 21.2-30.8 21.2-50.5 0-39.2-31.9-71.1-71.1-71.1h-68.4c-9.4 0-16.9 7.6-16.9 16.9v222.2c0 9.4 7.6 16.9 16.9 16.9h80.1c40.1 0 72.7-32.6 72.7-72.7-0.1-26-13.8-48.9-34.5-61.7zm-99.4-90.2h48.3c21.9 0 39.6 17.8 39.6 39.6s-17.8 39.6-39.6 39.6h-48.3c-1.8 0-3.2-1.4-3.2-3.2v-72.9c0-1.6 1.4-3.1 3.2-3.1zm60 193.1h-60c-1.8 0-3.2-1.4-3.2-3.2v-76c0-1.8 1.4-3.2 3.2-3.2h60c22.7 0 41.2 18.5 41.2 41.2 0 22.8-18.5 41.2-41.2 41.2z"/>
<path class="st0" d="m210.2 394.7c-9.4 0-16.9 7.6-16.9 16.9v167.6s-119.3-173.7-121.7-177.2c-3.1-4.4-8.2-7.4-14-7.4-9.4 0-16.9 7.6-16.9 16.9v222.2c0 9.4 7.6 16.9 16.9 16.9s16.9-7.6 16.9-16.9v-167.5s119.8 174.4 121.7 177.2c3.1 4.4 8.2 7.4 14 7.4 9.4 0 16.9-7.6 16.9-16.9v-222.3c0.1-9.4-7.5-16.9-16.9-16.9z"/>
<path class="st10" d="m376.9 331.7c-2.4 0-4.9-0.8-6.9-2.4-4.9-3.8-5.8-10.9-2-15.9l53.4-68.7c3.8-4.9 10.9-5.8 15.9-2 4.9 3.8 5.8 10.9 2 15.9l-53.4 68.7c-2.3 2.9-5.6 4.4-9 4.4z"/>
<path class="st11" d="m523.9 274.3c-3.6 0.6-7.4-1.1-9.3-4.5-2.3-4.3-0.7-9.7 3.6-12l19.2-10.4c4.3-2.3 9.7-0.7 12 3.6s0.7 9.7-3.6 12l-19.2 10.4c-0.8 0.5-1.8 0.8-2.7 0.9z"/>
<circle class="st12" cx="505.5" cy="234" r="9.7"/>
</svg>
